<svg width="657" height="617" viewBox="0 0 657 617" fill="none" xmlns="http://www.w3.org/2000/svg">
<path d="M504.082 14.6032L429.37 174.505L648.524 183.556C703.512 529.507 477.517 616.665 357.647 617C77.9262 607.346 43.1935 372.957 60.7923 256.97C133.312 -16.5725 386.535 -18.5839 504.082 14.6032Z" fill="white"/>
<path d="M239.986 288.193C249.586 168.914 379.327 156.502 442.997 165.206L376.993 310.514H501C497.8 416.617 405.661 430.14 359.992 423.639C250.386 408.816 234.319 327.165 239.986 288.193Z" fill="#110086"/>
<path d="M0 371V368H23V371H0ZM0 365V362H23V365H0ZM0 359V356H14.375H23V359H0Z" fill="white"/>
</svg>
